<?xml version="1.0" encoding="utf-8"?>
<!-- Generator: Adobe Illustrator 23.0.2, SVG Export Plug-In . SVG Version: 6.00 Build 0)  -->
<svg version="1.1" id="Capa_1" xmlns="http://www.w3.org/2000/svg" xmlns:xlink="http://www.w3.org/1999/xlink" x="0px" y="0px"
	 viewBox="0 0 35 42.8" width="35" height="42.8" style="enable-background:new 0 0 35 42.8;" xml:space="preserve">
<style type="text/css">
	.st0{fill:#FFFFFF;}
	.st1{fill:#0A80B5;}
	.st2{fill-rule:evenodd;clip-rule:evenodd;fill:#FFFFFF;}
	.st3{fill-rule:evenodd;clip-rule:evenodd;fill:#718A30;}
	.st4{fill-rule:evenodd;clip-rule:evenodd;fill:#738B30;}
	.st5{fill:#0A80B5;stroke:#FFFFFF;stroke-miterlimit:10;}
</style>
<g>
	<g>
		<g>
			<path class="st0" d="M17.6,39.7c-0.4,0-0.7-0.2-1-0.4c0-0.1-0.2-0.2-0.4-0.4c-8.6-7.8-13.1-15.4-13.1-22C3.1,9.2,9.6,3,17.6,3
				S32,9.2,32,16.9c0,6.4-4.7,14.2-13.1,22c-0.2,0.2-0.3,0.3-0.4,0.4C18.3,39.6,18,39.7,17.6,39.7z M17.6,3.9C10.1,3.9,4,9.8,4,16.9
				c0,6.2,4.5,13.8,12.8,21.3c0.2,0.2,0.4,0.4,0.5,0.4c0.1,0.2,0.4,0.2,0.6,0c0.1-0.1,0.2-0.2,0.4-0.4c8.3-7.6,12.8-15.2,12.8-21.3
				C31.1,9.8,25,3.9,17.6,3.9z"/>
		</g>
		<g>
			<path class="st1" d="M17.6,3.8c7.6,0,13.7,5.9,13.7,13.2c0,10.4-12.6,21.1-13.1,21.7C18,38.9,17.8,39,17.6,39s-0.5-0.1-0.6-0.3
				C16.4,38.1,3.8,27.6,3.8,17C3.8,9.7,10,3.8,17.6,3.8L17.6,3.8z"/>
			<path class="st1" d="M22.7,7.9"/>
		</g>
		<g>
			<path class="st2" d="M11.2,16.5c-0.4-0.2-0.8-0.3-1.2-0.3S9,16.4,9,17c0,1.1,2.7,0.6,2.7,2.7c0,1.3-1.1,1.8-2.3,1.8
				c-0.7,0-1-0.1-1.6-0.2L8,20.2c0.4,0.2,0.9,0.4,1.4,0.4s1.1-0.2,1.1-0.8c0-1.2-2.7-0.7-2.7-2.7c0-1.4,1.1-1.9,2.1-1.9
				c0.5,0,1,0.1,1.5,0.2L11.2,16.5z"/>
			<polygon class="st2" points="24,15.3 27.6,15.3 27.6,16.3 25.2,16.3 25.2,17.8 27.4,17.8 27.4,18.8 25.2,18.8 25.2,20.5 
				27.6,20.5 27.6,21.4 24,21.4 			"/>
			<path class="st2" d="M12.8,15.3H14v3.5c0,1,0.3,1.7,1.3,1.7c0.9,0,1.3-0.7,1.3-1.7v-3.5h1.2v3.9c0,1.6-0.9,2.3-2.5,2.3
				s-2.5-0.7-2.5-2.3C12.8,19.2,12.8,15.3,12.8,15.3z"/>
			<path class="st3" d="M15,21.5L15,21.5L15,21.5L15,21.5L15,21.5z M12.8,15.3L12.8,15.3c0.1-0.1,1.7-1.7,2.1-2s0.7,0,0.7,0l2.1,2
				h-1.2v3.5c0,1-0.3,1.7-1.3,1.7c-0.9,0-1.3-0.7-1.3-1.7v-3.5C13.9,15.3,12.8,15.3,12.8,15.3z"/>
			<path class="st2" d="M18.7,15.3h2.1c0.8,0,2,0.2,2,1.6c0,0.7-0.5,1.2-1.2,1.4l0,0c0.8,0.1,1.4,0.6,1.4,1.4c0,1.5-1.4,1.8-2.1,1.8
				h-2.1L18.7,15.3L18.7,15.3z M19.9,17.8L19.9,17.8h0.5c0.5,0,1.2-0.1,1.2-0.7c0-0.7-0.6-0.8-1.2-0.8h-0.5V17.8L19.9,17.8z
				 M19.9,20.5L19.9,20.5h0.6c0.6,0,1.3-0.1,1.3-0.8c0-0.8-0.6-0.9-1.3-0.9h-0.6V20.5z"/>
			<path class="st2" d="M11.2,16.5c-0.4-0.2-0.8-0.3-1.2-0.3S9,16.4,9,17c0,1.1,2.7,0.6,2.7,2.7c0,1.3-1.1,1.8-2.3,1.8
				c-0.7,0-1-0.1-1.6-0.2L8,20.2c0.4,0.2,0.9,0.4,1.4,0.4s1.1-0.2,1.1-0.8c0-1.2-2.7-0.7-2.7-2.7c0-1.4,1.1-1.9,2.1-1.9
				c0.5,0,1,0.1,1.5,0.2L11.2,16.5z"/>
			<polygon class="st2" points="24,15.3 27.6,15.3 27.6,16.3 25.2,16.3 25.2,17.8 27.4,17.8 27.4,18.8 25.2,18.8 25.2,20.5 
				27.6,20.5 27.6,21.4 24,21.4 			"/>
			<path class="st4" d="M15,21.5L15,21.5L15,21.5L15,21.5L15,21.5z M12.8,15.3L12.8,15.3c0.1-0.1,1.7-1.7,2.1-2s0.7,0,0.7,0l2.1,2
				l-1,0v3.5c0,1-0.4,1.8-1.4,1.8c-0.9,0-1.4-0.8-1.4-1.8l0-3.3C13.9,15.5,12.8,15.3,12.8,15.3z"/>
			<path class="st2" d="M18.7,15.3h2.1c0.8,0,2,0.2,2,1.6c0,0.7-0.5,1.2-1.2,1.4l0,0c0.8,0.1,1.4,0.6,1.4,1.4c0,1.5-1.4,1.8-2.1,1.8
				h-2.1L18.7,15.3L18.7,15.3z M19.9,17.8L19.9,17.8h0.5c0.5,0,1.2-0.1,1.2-0.7c0-0.7-0.6-0.8-1.2-0.8h-0.5V17.8L19.9,17.8z
				 M19.9,20.5L19.9,20.5h0.6c0.6,0,1.3-0.1,1.3-0.8c0-0.8-0.6-0.9-1.3-0.9h-0.6V20.5z"/>
			<path class="st2" d="M12.8,15.3H14v3.5c0,1,0.3,1.7,1.3,1.7c0.9,0,1.3-0.7,1.3-1.7v-3.5h1.2v3.9c0,1.6-0.9,2.3-2.5,2.3
				s-2.5-0.7-2.5-2.3C12.8,19.2,12.8,15.3,12.8,15.3z"/>
		</g>
	</g>
	<g>
		<path class="st5" d="M22.7,7.9"/>
	</g>
</g>
</svg>
